{
	"asset":{
		"generator":"Khronos glTF Blender I/O v4.2.57",
		"version":"2.0"
	},
	"scene":0,
	"scenes":[
		{
			"name":"Scene",
			"nodes":[
				0
			]
		}
	],
	"nodes":[
		{
			"mesh":0,
			"name":"DoorPath.001",
			"scale":[
				1,
				1,
				1.600000023841858
			]
		}
	],
	"materials":[
		{
			"doubleSided":true,
			"name":"Background.006",
			"normalTexture":{
				"index":0
			},
			"pbrMetallicRoughness":{
				"baseColorFactor":[
					0.800000011920929,
					0.800000011920929,
					0.800000011920929,
					1
				],
				"metallicFactor":0,
				"metallicRoughnessTexture":{
					"index":1
				}
			}
		}
	],
	"meshes":[
		{
			"name":"Plane.001",
			"primitives":[
				{
					"attributes":{
						"POSITION":0,
						"NORMAL":1,
						"TEXCOORD_0":2
					},
					"indices":3,
					"material":0
				}
			]
		}
	],
	"textures":[
		{
			"sampler":0,
			"source":0
		},
		{
			"sampler":0,
			"source":1
		}
	],
	"images":[
		{
			"mimeType":"image/png",
			"name":"beige_wall_001_nor_gl_2k",
			"uri":"beige_wall_001_nor_gl_2k.png"
		},
		{
			"mimeType":"image/png",
			"name":"beige_wall_001_rough_2k",
			"uri":"beige_wall_001_rough_2k.png"
		}
	],
	"accessors":[
		{
			"bufferView":0,
			"componentType":5126,
			"count":178,
			"max":[
				2.4612557888031006,
				4.454597473144531,
				0.17118710279464722
			],
			"min":[
				-2.4612557888031006,
				-0.0031109314877539873,
				-0.21881312131881714
			],
			"type":"VEC3"
		},
		{
			"bufferView":1,
			"componentType":5126,
			"count":178,
			"type":"VEC3"
		},
		{
			"bufferView":2,
			"componentType":5126,
			"count":178,
			"type":"VEC2"
		},
		{
			"bufferView":3,
			"componentType":5123,
			"count":372,
			"type":"SCALAR"
		}
	],
	"bufferViews":[
		{
			"buffer":0,
			"byteLength":2136,
			"byteOffset":0,
			"target":34962
		},
		{
			"buffer":0,
			"byteLength":2136,
			"byteOffset":2136,
			"target":34962
		},
		{
			"buffer":0,
			"byteLength":1424,
			"byteOffset":4272,
			"target":34962
		},
		{
			"buffer":0,
			"byteLength":744,
			"byteOffset":5696,
			"target":34963
		}
	],
	"samplers":[
		{
			"magFilter":9729,
			"minFilter":9987
		}
	],
	"buffers":[
		{
			"byteLength":6440,
			"uri":"DoorPlace.bin"
		}
	]
}
