{
	"asset":{
		"generator":"Khronos glTF Blender I/O v4.2.57",
		"version":"2.0"
	},
	"scene":0,
	"scenes":[
		{
			"name":"Scene",
			"nodes":[
				0,
				1,
				2,
				3,
				4,
				5,
				6,
				7
			]
		}
	],
	"nodes":[
		{
			"mesh":0,
			"name":"Plane.003"
		},
		{
			"mesh":1,
			"name":"Cube.001"
		},
		{
			"mesh":2,
			"name":"DoorPath.002"
		},
		{
			"mesh":3,
			"name":"Ceiling.001",
			"translation":[
				0,
				-0.46877825260162354,
				0
			]
		},
		{
			"mesh":4,
			"name":"Floor"
		},
		{
			"mesh":5,
			"name":"LCZWallNeoCB2.002",
			"translation":[
				4.526214122772217,
				0,
				0
			]
		},
		{
			"mesh":6,
			"name":"LCZWallNeoCB2.003",
			"rotation":[
				0,
				-1,
				0,
				4.371138828673793e-08
			],
			"translation":[
				-4.740970611572266,
				0,
				0
			]
		},
		{
			"mesh":7,
			"name":"DoorPath.001"
		}
	],
	"materials":[
		{
			"doubleSided":true,
			"name":"Background.006",
			"normalTexture":{
				"index":0
			},
			"pbrMetallicRoughness":{
				"baseColorFactor":[
					0.800000011920929,
					0.800000011920929,
					0.800000011920929,
					1
				],
				"metallicFactor":0,
				"metallicRoughnessTexture":{
					"index":1
				}
			}
		},
		{
			"doubleSided":true,
			"name":"Material.012",
			"normalTexture":{
				"index":2
			},
			"pbrMetallicRoughness":{
				"baseColorTexture":{
					"index":3
				},
				"metallicRoughnessTexture":{
					"index":4
				}
			}
		},
		{
			"doubleSided":true,
			"name":"Material.013",
			"normalTexture":{
				"index":5
			},
			"pbrMetallicRoughness":{
				"baseColorTexture":{
					"index":6
				},
				"metallicFactor":0,
				"metallicRoughnessTexture":{
					"index":7
				}
			}
		},
		{
			"doubleSided":true,
			"name":"Glow.001",
			"pbrMetallicRoughness":{
				"baseColorFactor":[
					0,
					0,
					0,
					1
				],
				"metallicFactor":0,
				"roughnessFactor":0.5
			}
		},
		{
			"doubleSided":true,
			"name":"Foreground.006",
			"normalTexture":{
				"index":8
			},
			"pbrMetallicRoughness":{
				"baseColorTexture":{
					"index":9
				},
				"metallicRoughnessTexture":{
					"index":10
				}
			}
		},
		{
			"doubleSided":true,
			"name":"Background.005",
			"normalTexture":{
				"index":11
			},
			"pbrMetallicRoughness":{
				"baseColorFactor":[
					0.800000011920929,
					0.800000011920929,
					0.800000011920929,
					1
				],
				"metallicFactor":0,
				"metallicRoughnessTexture":{
					"index":12
				}
			}
		},
		{
			"doubleSided":true,
			"name":"Foreground.004",
			"normalTexture":{
				"index":13
			},
			"pbrMetallicRoughness":{
				"baseColorTexture":{
					"index":14
				},
				"metallicRoughnessTexture":{
					"index":15
				}
			}
		},
		{
			"doubleSided":true,
			"name":"Background.004",
			"normalTexture":{
				"index":16
			},
			"pbrMetallicRoughness":{
				"baseColorFactor":[
					0.800000011920929,
					0.800000011920929,
					0.800000011920929,
					1
				],
				"metallicFactor":0,
				"metallicRoughnessTexture":{
					"index":17
				}
			}
		},
		{
			"doubleSided":true,
			"name":"Background.007",
			"normalTexture":{
				"index":18
			},
			"pbrMetallicRoughness":{
				"baseColorFactor":[
					0.800000011920929,
					0.800000011920929,
					0.800000011920929,
					1
				],
				"metallicFactor":0,
				"metallicRoughnessTexture":{
					"index":19
				}
			}
		},
		{
			"doubleSided":true,
			"name":"Background.001",
			"normalTexture":{
				"index":20
			},
			"pbrMetallicRoughness":{
				"baseColorFactor":[
					0.800000011920929,
					0.800000011920929,
					0.800000011920929,
					1
				],
				"metallicFactor":0,
				"metallicRoughnessTexture":{
					"index":21
				}
			}
		}
	],
	"meshes":[
		{
			"name":"Plane.003",
			"primitives":[
				{
					"attributes":{
						"POSITION":0,
						"NORMAL":1,
						"TEXCOORD_0":2
					},
					"indices":3,
					"material":0
				}
			]
		},
		{
			"name":"Cube.001",
			"primitives":[
				{
					"attributes":{
						"POSITION":4,
						"NORMAL":5,
						"TEXCOORD_0":6
					},
					"indices":7,
					"material":0
				}
			]
		},
		{
			"name":"Plane.006",
			"primitives":[
				{
					"attributes":{
						"POSITION":8,
						"NORMAL":9,
						"TEXCOORD_0":10
					},
					"indices":11,
					"material":0
				}
			]
		},
		{
			"name":"Plane.005",
			"primitives":[
				{
					"attributes":{
						"POSITION":12,
						"NORMAL":13,
						"TEXCOORD_0":14
					},
					"indices":15,
					"material":1
				}
			]
		},
		{
			"name":"Plane.008",
			"primitives":[
				{
					"attributes":{
						"POSITION":16,
						"NORMAL":17,
						"TEXCOORD_0":18
					},
					"indices":19,
					"material":2
				}
			]
		},
		{
			"name":"Plane.001",
			"primitives":[
				{
					"attributes":{
						"POSITION":20,
						"NORMAL":21,
						"TEXCOORD_0":22
					},
					"indices":23,
					"material":3
				},
				{
					"attributes":{
						"POSITION":24,
						"NORMAL":25,
						"TEXCOORD_0":26
					},
					"indices":27,
					"material":4
				},
				{
					"attributes":{
						"POSITION":28,
						"NORMAL":29,
						"TEXCOORD_0":30
					},
					"indices":31,
					"material":0
				},
				{
					"attributes":{
						"POSITION":32,
						"NORMAL":33,
						"TEXCOORD_0":34
					},
					"indices":35,
					"material":5
				}
			]
		},
		{
			"name":"Plane.002",
			"primitives":[
				{
					"attributes":{
						"POSITION":36,
						"NORMAL":37,
						"TEXCOORD_0":38
					},
					"indices":23,
					"material":3
				},
				{
					"attributes":{
						"POSITION":39,
						"NORMAL":40,
						"TEXCOORD_0":41
					},
					"indices":27,
					"material":6
				},
				{
					"attributes":{
						"POSITION":42,
						"NORMAL":43,
						"TEXCOORD_0":44
					},
					"indices":31,
					"material":7
				},
				{
					"attributes":{
						"POSITION":45,
						"NORMAL":46,
						"TEXCOORD_0":47
					},
					"indices":35,
					"material":8
				}
			]
		},
		{
			"name":"Plane.007",
			"primitives":[
				{
					"attributes":{
						"POSITION":48,
						"NORMAL":49,
						"TEXCOORD_0":50
					},
					"indices":51,
					"material":9
				}
			]
		}
	],
	"textures":[
		{
			"sampler":0,
			"source":0
		},
		{
			"sampler":0,
			"source":1
		},
		{
			"sampler":0,
			"source":2
		},
		{
			"sampler":0,
			"source":3
		},
		{
			"sampler":0,
			"source":4
		},
		{
			"sampler":0,
			"source":5
		},
		{
			"sampler":0,
			"source":6
		},
		{
			"sampler":0,
			"source":7
		},
		{
			"sampler":0,
			"source":8
		},
		{
			"sampler":0,
			"source":9
		},
		{
			"sampler":0,
			"source":10
		},
		{
			"sampler":0,
			"source":0
		},
		{
			"sampler":0,
			"source":1
		},
		{
			"sampler":0,
			"source":8
		},
		{
			"sampler":0,
			"source":9
		},
		{
			"sampler":0,
			"source":11
		},
		{
			"sampler":0,
			"source":0
		},
		{
			"sampler":0,
			"source":1
		},
		{
			"sampler":0,
			"source":0
		},
		{
			"sampler":0,
			"source":1
		},
		{
			"sampler":0,
			"source":0
		},
		{
			"sampler":0,
			"source":12
		}
	],
	"images":[
		{
			"mimeType":"image/png",
			"name":"beige_wall_001_nor_gl_2k",
			"uri":"beige_wall_001_nor_gl_2k.png"
		},
		{
			"mimeType":"image/png",
			"name":"beige_wall_001_rough_2k",
			"uri":"beige_wall_001_rough_2k.png"
		},
		{
			"mimeType":"image/png",
			"name":"OfficeCeiling001_2K_NormalGL",
			"uri":"OfficeCeiling001_2K_NormalGL.png"
		},
		{
			"mimeType":"image/png",
			"name":"OfficeCeiling001_2K_Color",
			"uri":"OfficeCeiling001_2K_Color.png"
		},
		{
			"mimeType":"image/png",
			"name":"OfficeCeiling001_2K_Metalness_png-OfficeCeiling001_2K_Roughness_png",
			"uri":"OfficeCeiling001_2K_Metalness_png-OfficeCeiling001_2K_Roughness_png.png"
		},
		{
			"mimeType":"image/png",
			"name":"Tiles107_2K_NormalGL",
			"uri":"Tiles107_2K_NormalGL.png"
		},
		{
			"mimeType":"image/png",
			"name":"Tiles107_2K_Color",
			"uri":"Tiles107_2K_Color.png"
		},
		{
			"mimeType":"image/png",
			"name":"Tiles107_2K_Roughness",
			"uri":"Tiles107_2K_Roughness.png"
		},
		{
			"mimeType":"image/png",
			"name":"SheetMetal001_2K-PNG_NormalGL",
			"uri":"SheetMetal001_2K-PNG_NormalGL.png"
		},
		{
			"mimeType":"image/png",
			"name":"SheetMetal001_2K-PNG_Color",
			"uri":"SheetMetal001_2K-PNG_Color.png"
		},
		{
			"mimeType":"image/png",
			"name":"SheetMetal001_2K-PNG_Metalness-SheetMetal001_2K-PNG_Roughness",
			"uri":"SheetMetal001_2K-PNG_Metalness-SheetMetal001_2K-PNG_Roughness.png"
		},
		{
			"mimeType":"image/png",
			"name":"SheetMetal001_2K-PNG_Metalness_png-SheetMetal001_2K-PNG_Roughness_png",
			"uri":"SheetMetal001_2K-PNG_Metalness_png-SheetMetal001_2K-PNG_Roughness_png.png"
		},
		{
			"mimeType":"image/png",
			"name":"beige_wall_001_rough_2k",
			"uri":"beige_wall_001_rough_2k-1.png"
		}
	],
	"accessors":[
		{
			"bufferView":0,
			"componentType":5126,
			"count":720,
			"max":[
				2.2217674255371094,
				6.996889114379883,
				0.5211169719696045
			],
			"min":[
				-8.161969184875488,
				-0.0031108856201171875,
				-9.918769836425781
			],
			"type":"VEC3"
		},
		{
			"bufferView":1,
			"componentType":5126,
			"count":720,
			"type":"VEC3"
		},
		{
			"bufferView":2,
			"componentType":5126,
			"count":720,
			"type":"VEC2"
		},
		{
			"bufferView":3,
			"componentType":5123,
			"count":2364,
			"type":"SCALAR"
		},
		{
			"bufferView":4,
			"componentType":5126,
			"count":24,
			"max":[
				8.20998764038086,
				7.102725028991699,
				-9.78659725189209
			],
			"min":[
				-8.20998764038086,
				-0.10576725006103516,
				-10.057364463806152
			],
			"type":"VEC3"
		},
		{
			"bufferView":5,
			"componentType":5126,
			"count":24,
			"type":"VEC3"
		},
		{
			"bufferView":6,
			"componentType":5126,
			"count":24,
			"type":"VEC2"
		},
		{
			"bufferView":7,
			"componentType":5123,
			"count":36,
			"type":"SCALAR"
		},
		{
			"bufferView":8,
			"componentType":5126,
			"count":154,
			"max":[
				7.7036452293396,
				6.996889114379883,
				0.46627140045166016
			],
			"min":[
				2.120579957962036,
				-0.0031108942348510027,
				0.24575233459472656
			],
			"type":"VEC3"
		},
		{
			"bufferView":9,
			"componentType":5126,
			"count":154,
			"type":"VEC3"
		},
		{
			"bufferView":10,
			"componentType":5126,
			"count":154,
			"type":"VEC2"
		},
		{
			"bufferView":11,
			"componentType":5123,
			"count":252,
			"type":"SCALAR"
		},
		{
			"bufferView":12,
			"componentType":5126,
			"count":4,
			"max":[
				10,
				6.99613094329834,
				10
			],
			"min":[
				-10,
				6.99613094329834,
				-10
			],
			"type":"VEC3"
		},
		{
			"bufferView":13,
			"componentType":5126,
			"count":4,
			"type":"VEC3"
		},
		{
			"bufferView":14,
			"componentType":5126,
			"count":4,
			"type":"VEC2"
		},
		{
			"bufferView":15,
			"componentType":5123,
			"count":6,
			"type":"SCALAR"
		},
		{
			"bufferView":16,
			"componentType":5126,
			"count":4,
			"max":[
				10,
				3.755558282136917e-07,
				10.238296508789062
			],
			"min":[
				-10,
				3.755558282136917e-07,
				-10.238296508789062
			],
			"type":"VEC3"
		},
		{
			"bufferView":17,
			"componentType":5126,
			"count":4,
			"type":"VEC3"
		},
		{
			"bufferView":18,
			"componentType":5126,
			"count":4,
			"type":"VEC2"
		},
		{
			"bufferView":19,
			"componentType":5123,
			"count":6,
			"type":"SCALAR"
		},
		{
			"bufferView":20,
			"componentType":5126,
			"count":16,
			"max":[
				3.265799045562744,
				6.610196113586426,
				7.629590034484863
			],
			"min":[
				3.0861258506774902,
				-0.10641400516033173,
				-7.913471698760986
			],
			"type":"VEC3"
		},
		{
			"bufferView":21,
			"componentType":5126,
			"count":16,
			"type":"VEC3"
		},
		{
			"bufferView":22,
			"componentType":5126,
			"count":16,
			"type":"VEC2"
		},
		{
			"bufferView":23,
			"componentType":5123,
			"count":24,
			"type":"SCALAR"
		},
		{
			"bufferView":24,
			"componentType":5126,
			"count":8,
			"max":[
				3.265799045562744,
				6.610196113586426,
				7.554197311401367
			],
			"min":[
				3.265798330307007,
				-0.10641399770975113,
				-7.851383686065674
			],
			"type":"VEC3"
		},
		{
			"bufferView":25,
			"componentType":5126,
			"count":8,
			"type":"VEC3"
		},
		{
			"bufferView":26,
			"componentType":5126,
			"count":8,
			"type":"VEC2"
		},
		{
			"bufferView":27,
			"componentType":5123,
			"count":12,
			"type":"SCALAR"
		},
		{
			"bufferView":28,
			"componentType":5126,
			"count":18,
			"max":[
				3.0861263275146484,
				6.610196113586426,
				10.136270523071289
			],
			"min":[
				3.086125612258911,
				-0.10641400516033173,
				-10.046891212463379
			],
			"type":"VEC3"
		},
		{
			"bufferView":29,
			"componentType":5126,
			"count":18,
			"type":"VEC3"
		},
		{
			"bufferView":30,
			"componentType":5126,
			"count":18,
			"type":"VEC2"
		},
		{
			"bufferView":31,
			"componentType":5123,
			"count":30,
			"type":"SCALAR"
		},
		{
			"bufferView":32,
			"componentType":5126,
			"count":10,
			"max":[
				3.0861260890960693,
				6.610196113586426,
				4.078685760498047
			],
			"min":[
				3.0861258506774902,
				-0.10641400516033173,
				-2.78707218170166
			],
			"type":"VEC3"
		},
		{
			"bufferView":33,
			"componentType":5126,
			"count":10,
			"type":"VEC3"
		},
		{
			"bufferView":34,
			"componentType":5126,
			"count":10,
			"type":"VEC2"
		},
		{
			"bufferView":35,
			"componentType":5123,
			"count":24,
			"type":"SCALAR"
		},
		{
			"bufferView":36,
			"componentType":5126,
			"count":16,
			"max":[
				3.265799045562744,
				6.610196113586426,
				7.629590034484863
			],
			"min":[
				3.0861258506774902,
				-0.10641400516033173,
				-7.913471698760986
			],
			"type":"VEC3"
		},
		{
			"bufferView":37,
			"componentType":5126,
			"count":16,
			"type":"VEC3"
		},
		{
			"bufferView":38,
			"componentType":5126,
			"count":16,
			"type":"VEC2"
		},
		{
			"bufferView":39,
			"componentType":5126,
			"count":8,
			"max":[
				3.265799045562744,
				6.610196113586426,
				7.554197311401367
			],
			"min":[
				3.265798330307007,
				-0.10641399770975113,
				-7.851383686065674
			],
			"type":"VEC3"
		},
		{
			"bufferView":40,
			"componentType":5126,
			"count":8,
			"type":"VEC3"
		},
		{
			"bufferView":41,
			"componentType":5126,
			"count":8,
			"type":"VEC2"
		},
		{
			"bufferView":42,
			"componentType":5126,
			"count":18,
			"max":[
				3.0861263275146484,
				6.610196113586426,
				10.136270523071289
			],
			"min":[
				3.086125612258911,
				-0.10641400516033173,
				-10.046891212463379
			],
			"type":"VEC3"
		},
		{
			"bufferView":43,
			"componentType":5126,
			"count":18,
			"type":"VEC3"
		},
		{
			"bufferView":44,
			"componentType":5126,
			"count":18,
			"type":"VEC2"
		},
		{
			"bufferView":45,
			"componentType":5126,
			"count":10,
			"max":[
				3.0861260890960693,
				6.610196113586426,
				4.078685760498047
			],
			"min":[
				3.0861258506774902,
				-0.10641400516033173,
				-2.78707218170166
			],
			"type":"VEC3"
		},
		{
			"bufferView":46,
			"componentType":5126,
			"count":10,
			"type":"VEC3"
		},
		{
			"bufferView":47,
			"componentType":5126,
			"count":10,
			"type":"VEC2"
		},
		{
			"bufferView":48,
			"componentType":5126,
			"count":30,
			"max":[
				8.00000286102295,
				6.996889114379883,
				9.935484886169434
			],
			"min":[
				-7.999997615814209,
				-0.0031108856201171875,
				9.9354829788208
			],
			"type":"VEC3"
		},
		{
			"bufferView":49,
			"componentType":5126,
			"count":30,
			"type":"VEC3"
		},
		{
			"bufferView":50,
			"componentType":5126,
			"count":30,
			"type":"VEC2"
		},
		{
			"bufferView":51,
			"componentType":5123,
			"count":81,
			"type":"SCALAR"
		}
	],
	"bufferViews":[
		{
			"buffer":0,
			"byteLength":8640,
			"byteOffset":0,
			"target":34962
		},
		{
			"buffer":0,
			"byteLength":8640,
			"byteOffset":8640,
			"target":34962
		},
		{
			"buffer":0,
			"byteLength":5760,
			"byteOffset":17280,
			"target":34962
		},
		{
			"buffer":0,
			"byteLength":4728,
			"byteOffset":23040,
			"target":34963
		},
		{
			"buffer":0,
			"byteLength":288,
			"byteOffset":27768,
			"target":34962
		},
		{
			"buffer":0,
			"byteLength":288,
			"byteOffset":28056,
			"target":34962
		},
		{
			"buffer":0,
			"byteLength":192,
			"byteOffset":28344,
			"target":34962
		},
		{
			"buffer":0,
			"byteLength":72,
			"byteOffset":28536,
			"target":34963
		},
		{
			"buffer":0,
			"byteLength":1848,
			"byteOffset":28608,
			"target":34962
		},
		{
			"buffer":0,
			"byteLength":1848,
			"byteOffset":30456,
			"target":34962
		},
		{
			"buffer":0,
			"byteLength":1232,
			"byteOffset":32304,
			"target":34962
		},
		{
			"buffer":0,
			"byteLength":504,
			"byteOffset":33536,
			"target":34963
		},
		{
			"buffer":0,
			"byteLength":48,
			"byteOffset":34040,
			"target":34962
		},
		{
			"buffer":0,
			"byteLength":48,
			"byteOffset":34088,
			"target":34962
		},
		{
			"buffer":0,
			"byteLength":32,
			"byteOffset":34136,
			"target":34962
		},
		{
			"buffer":0,
			"byteLength":12,
			"byteOffset":34168,
			"target":34963
		},
		{
			"buffer":0,
			"byteLength":48,
			"byteOffset":34180,
			"target":34962
		},
		{
			"buffer":0,
			"byteLength":48,
			"byteOffset":34228,
			"target":34962
		},
		{
			"buffer":0,
			"byteLength":32,
			"byteOffset":34276,
			"target":34962
		},
		{
			"buffer":0,
			"byteLength":12,
			"byteOffset":34308,
			"target":34963
		},
		{
			"buffer":0,
			"byteLength":192,
			"byteOffset":34320,
			"target":34962
		},
		{
			"buffer":0,
			"byteLength":192,
			"byteOffset":34512,
			"target":34962
		},
		{
			"buffer":0,
			"byteLength":128,
			"byteOffset":34704,
			"target":34962
		},
		{
			"buffer":0,
			"byteLength":48,
			"byteOffset":34832,
			"target":34963
		},
		{
			"buffer":0,
			"byteLength":96,
			"byteOffset":34880,
			"target":34962
		},
		{
			"buffer":0,
			"byteLength":96,
			"byteOffset":34976,
			"target":34962
		},
		{
			"buffer":0,
			"byteLength":64,
			"byteOffset":35072,
			"target":34962
		},
		{
			"buffer":0,
			"byteLength":24,
			"byteOffset":35136,
			"target":34963
		},
		{
			"buffer":0,
			"byteLength":216,
			"byteOffset":35160,
			"target":34962
		},
		{
			"buffer":0,
			"byteLength":216,
			"byteOffset":35376,
			"target":34962
		},
		{
			"buffer":0,
			"byteLength":144,
			"byteOffset":35592,
			"target":34962
		},
		{
			"buffer":0,
			"byteLength":60,
			"byteOffset":35736,
			"target":34963
		},
		{
			"buffer":0,
			"byteLength":120,
			"byteOffset":35796,
			"target":34962
		},
		{
			"buffer":0,
			"byteLength":120,
			"byteOffset":35916,
			"target":34962
		},
		{
			"buffer":0,
			"byteLength":80,
			"byteOffset":36036,
			"target":34962
		},
		{
			"buffer":0,
			"byteLength":48,
			"byteOffset":36116,
			"target":34963
		},
		{
			"buffer":0,
			"byteLength":192,
			"byteOffset":36164,
			"target":34962
		},
		{
			"buffer":0,
			"byteLength":192,
			"byteOffset":36356,
			"target":34962
		},
		{
			"buffer":0,
			"byteLength":128,
			"byteOffset":36548,
			"target":34962
		},
		{
			"buffer":0,
			"byteLength":96,
			"byteOffset":36676,
			"target":34962
		},
		{
			"buffer":0,
			"byteLength":96,
			"byteOffset":36772,
			"target":34962
		},
		{
			"buffer":0,
			"byteLength":64,
			"byteOffset":36868,
			"target":34962
		},
		{
			"buffer":0,
			"byteLength":216,
			"byteOffset":36932,
			"target":34962
		},
		{
			"buffer":0,
			"byteLength":216,
			"byteOffset":37148,
			"target":34962
		},
		{
			"buffer":0,
			"byteLength":144,
			"byteOffset":37364,
			"target":34962
		},
		{
			"buffer":0,
			"byteLength":120,
			"byteOffset":37508,
			"target":34962
		},
		{
			"buffer":0,
			"byteLength":120,
			"byteOffset":37628,
			"target":34962
		},
		{
			"buffer":0,
			"byteLength":80,
			"byteOffset":37748,
			"target":34962
		},
		{
			"buffer":0,
			"byteLength":360,
			"byteOffset":37828,
			"target":34962
		},
		{
			"buffer":0,
			"byteLength":360,
			"byteOffset":38188,
			"target":34962
		},
		{
			"buffer":0,
			"byteLength":240,
			"byteOffset":38548,
			"target":34962
		},
		{
			"buffer":0,
			"byteLength":162,
			"byteOffset":38788,
			"target":34963
		}
	],
	"samplers":[
		{
			"magFilter":9729,
			"minFilter":9987
		}
	],
	"buffers":[
		{
			"byteLength":38952,
			"uri":"lc_cont1_testroom.bin"
		}
	]
}
