{
	"asset":{
		"generator":"Khronos glTF Blender I/O v4.2.57",
		"version":"2.0"
	},
	"scene":0,
	"scenes":[
		{
			"name":"Scene",
			"nodes":[
				0,
				1,
				2,
				3,
				4,
				5
			]
		}
	],
	"nodes":[
		{
			"mesh":0,
			"name":"Ceiling",
			"translation":[
				0,
				-0.39491450786590576,
				0
			]
		},
		{
			"mesh":1,
			"name":"Floor.001"
		},
		{
			"mesh":2,
			"name":"LCZWallNeoCB2.002"
		},
		{
			"mesh":3,
			"name":"LCZWallNeoCB2.016",
			"rotation":[
				0,
				-1,
				0,
				4.371138828673793e-08
			]
		},
		{
			"mesh":4,
			"name":"DoorPath.003",
			"rotation":[
				0,
				-1,
				0,
				4.371138828673793e-08
			]
		},
		{
			"mesh":5,
			"name":"DoorPath.002"
		}
	],
	"materials":[
		{
			"doubleSided":true,
			"name":"Material.004",
			"normalTexture":{
				"index":0
			},
			"pbrMetallicRoughness":{
				"baseColorTexture":{
					"index":1
				},
				"metallicRoughnessTexture":{
					"index":2
				}
			}
		},
		{
			"doubleSided":true,
			"name":"Material.013",
			"normalTexture":{
				"index":3
			},
			"pbrMetallicRoughness":{
				"baseColorTexture":{
					"index":4
				},
				"metallicFactor":0,
				"metallicRoughnessTexture":{
					"index":5
				}
			}
		},
		{
			"doubleSided":true,
			"name":"Glow.003",
			"pbrMetallicRoughness":{
				"baseColorFactor":[
					0,
					0,
					0,
					1
				],
				"metallicFactor":0,
				"roughnessFactor":0.5
			}
		},
		{
			"doubleSided":true,
			"name":"Foreground.001",
			"normalTexture":{
				"index":6
			},
			"pbrMetallicRoughness":{
				"baseColorTexture":{
					"index":7
				},
				"metallicRoughnessTexture":{
					"index":8
				}
			}
		},
		{
			"doubleSided":true,
			"name":"Background.001",
			"normalTexture":{
				"index":9
			},
			"pbrMetallicRoughness":{
				"baseColorFactor":[
					0.800000011920929,
					0.800000011920929,
					0.800000011920929,
					1
				],
				"metallicFactor":0,
				"metallicRoughnessTexture":{
					"index":10
				}
			}
		},
		{
			"doubleSided":true,
			"name":"Glow.007",
			"pbrMetallicRoughness":{
				"baseColorFactor":[
					0,
					0,
					0,
					1
				],
				"metallicFactor":0,
				"roughnessFactor":0.5
			}
		},
		{
			"doubleSided":true,
			"name":"Foreground.009",
			"normalTexture":{
				"index":11
			},
			"pbrMetallicRoughness":{
				"baseColorTexture":{
					"index":12
				},
				"metallicRoughnessTexture":{
					"index":13
				}
			}
		},
		{
			"doubleSided":true,
			"name":"Background.009",
			"normalTexture":{
				"index":14
			},
			"pbrMetallicRoughness":{
				"baseColorFactor":[
					0.800000011920929,
					0.800000011920929,
					0.800000011920929,
					1
				],
				"metallicFactor":0,
				"metallicRoughnessTexture":{
					"index":15
				}
			}
		},
		{
			"doubleSided":true,
			"name":"Background.002",
			"normalTexture":{
				"index":16
			},
			"pbrMetallicRoughness":{
				"baseColorFactor":[
					0.800000011920929,
					0.800000011920929,
					0.800000011920929,
					1
				],
				"metallicFactor":0,
				"metallicRoughnessTexture":{
					"index":17
				}
			}
		},
		{
			"doubleSided":true,
			"name":"Background.003",
			"normalTexture":{
				"index":18
			},
			"pbrMetallicRoughness":{
				"baseColorFactor":[
					0.800000011920929,
					0.800000011920929,
					0.800000011920929,
					1
				],
				"metallicFactor":0,
				"metallicRoughnessTexture":{
					"index":19
				}
			}
		}
	],
	"meshes":[
		{
			"name":"Plane.005",
			"primitives":[
				{
					"attributes":{
						"POSITION":0,
						"NORMAL":1,
						"TEXCOORD_0":2
					},
					"indices":3,
					"material":0
				}
			]
		},
		{
			"name":"Plane.008",
			"primitives":[
				{
					"attributes":{
						"POSITION":4,
						"NORMAL":5,
						"TEXCOORD_0":6
					},
					"indices":7,
					"material":1
				}
			]
		},
		{
			"name":"Plane.002",
			"primitives":[
				{
					"attributes":{
						"POSITION":8,
						"NORMAL":9,
						"TEXCOORD_0":10
					},
					"indices":11,
					"material":2
				},
				{
					"attributes":{
						"POSITION":12,
						"NORMAL":13,
						"TEXCOORD_0":14
					},
					"indices":15,
					"material":3
				},
				{
					"attributes":{
						"POSITION":16,
						"NORMAL":17,
						"TEXCOORD_0":18
					},
					"indices":19,
					"material":4
				}
			]
		},
		{
			"name":"Plane.020",
			"primitives":[
				{
					"attributes":{
						"POSITION":20,
						"NORMAL":21,
						"TEXCOORD_0":22
					},
					"indices":11,
					"material":5
				},
				{
					"attributes":{
						"POSITION":23,
						"NORMAL":24,
						"TEXCOORD_0":25
					},
					"indices":15,
					"material":6
				},
				{
					"attributes":{
						"POSITION":26,
						"NORMAL":27,
						"TEXCOORD_0":28
					},
					"indices":19,
					"material":7
				}
			]
		},
		{
			"name":"Plane.004",
			"primitives":[
				{
					"attributes":{
						"POSITION":29,
						"NORMAL":30,
						"TEXCOORD_0":31
					},
					"indices":32,
					"material":8
				}
			]
		},
		{
			"name":"Plane.003",
			"primitives":[
				{
					"attributes":{
						"POSITION":33,
						"NORMAL":34,
						"TEXCOORD_0":35
					},
					"indices":32,
					"material":9
				}
			]
		}
	],
	"textures":[
		{
			"sampler":0,
			"source":0
		},
		{
			"sampler":0,
			"source":1
		},
		{
			"sampler":0,
			"source":2
		},
		{
			"sampler":0,
			"source":3
		},
		{
			"sampler":0,
			"source":4
		},
		{
			"sampler":0,
			"source":5
		},
		{
			"sampler":0,
			"source":6
		},
		{
			"sampler":0,
			"source":7
		},
		{
			"sampler":0,
			"source":8
		},
		{
			"sampler":0,
			"source":9
		},
		{
			"sampler":0,
			"source":10
		},
		{
			"sampler":0,
			"source":6
		},
		{
			"sampler":0,
			"source":7
		},
		{
			"sampler":0,
			"source":11
		},
		{
			"sampler":0,
			"source":9
		},
		{
			"sampler":0,
			"source":10
		},
		{
			"sampler":0,
			"source":9
		},
		{
			"sampler":0,
			"source":12
		},
		{
			"sampler":0,
			"source":9
		},
		{
			"sampler":0,
			"source":12
		}
	],
	"images":[
		{
			"mimeType":"image/png",
			"name":"OfficeCeiling001_2K_NormalGL",
			"uri":"OfficeCeiling001_2K_NormalGL.png"
		},
		{
			"mimeType":"image/png",
			"name":"OfficeCeiling001_2K_Color",
			"uri":"OfficeCeiling001_2K_Color.png"
		},
		{
			"mimeType":"image/png",
			"name":"OfficeCeiling001_2K_Metalness-OfficeCeiling001_2K_Roughness",
			"uri":"OfficeCeiling001_2K_Metalness-OfficeCeiling001_2K_Roughness.png"
		},
		{
			"mimeType":"image/png",
			"name":"Tiles107_2K_NormalGL",
			"uri":"Tiles107_2K_NormalGL.png"
		},
		{
			"mimeType":"image/png",
			"name":"Tiles107_2K_Color",
			"uri":"Tiles107_2K_Color.png"
		},
		{
			"mimeType":"image/png",
			"name":"Tiles107_2K_Roughness",
			"uri":"Tiles107_2K_Roughness.png"
		},
		{
			"mimeType":"image/png",
			"name":"SheetMetal001_2K-PNG_NormalGL",
			"uri":"SheetMetal001_2K-PNG_NormalGL.png"
		},
		{
			"mimeType":"image/png",
			"name":"SheetMetal001_2K-PNG_Color",
			"uri":"SheetMetal001_2K-PNG_Color.png"
		},
		{
			"mimeType":"image/png",
			"name":"SheetMetal001_2K-PNG_Metalness-SheetMetal001_2K-PNG_Roughness",
			"uri":"SheetMetal001_2K-PNG_Metalness-SheetMetal001_2K-PNG_Roughness.png"
		},
		{
			"mimeType":"image/png",
			"name":"beige_wall_001_nor_gl_2k",
			"uri":"beige_wall_001_nor_gl_2k.png"
		},
		{
			"mimeType":"image/png",
			"name":"beige_wall_001_rough_2k",
			"uri":"beige_wall_001_rough_2k.png"
		},
		{
			"mimeType":"image/png",
			"name":"SheetMetal001_2K-PNG_Metalness_png-SheetMetal001_2K-PNG_Roughness_png",
			"uri":"SheetMetal001_2K-PNG_Metalness_png-SheetMetal001_2K-PNG_Roughness_png.png"
		},
		{
			"mimeType":"image/png",
			"name":"beige_wall_001_rough_2k",
			"uri":"beige_wall_001_rough_2k-1.png"
		}
	],
	"accessors":[
		{
			"bufferView":0,
			"componentType":5126,
			"count":4,
			"max":[
				10,
				6.99613094329834,
				10
			],
			"min":[
				-10,
				6.99613094329834,
				-10
			],
			"type":"VEC3"
		},
		{
			"bufferView":1,
			"componentType":5126,
			"count":4,
			"type":"VEC3"
		},
		{
			"bufferView":2,
			"componentType":5126,
			"count":4,
			"type":"VEC2"
		},
		{
			"bufferView":3,
			"componentType":5123,
			"count":6,
			"type":"SCALAR"
		},
		{
			"bufferView":4,
			"componentType":5126,
			"count":4,
			"max":[
				10.238296508789062,
				3.755558282136917e-07,
				10.238296508789062
			],
			"min":[
				-10.238295555114746,
				3.755558282136917e-07,
				-10.238296508789062
			],
			"type":"VEC3"
		},
		{
			"bufferView":5,
			"componentType":5126,
			"count":4,
			"type":"VEC3"
		},
		{
			"bufferView":6,
			"componentType":5126,
			"count":4,
			"type":"VEC2"
		},
		{
			"bufferView":7,
			"componentType":5123,
			"count":6,
			"type":"SCALAR"
		},
		{
			"bufferView":8,
			"componentType":5126,
			"count":16,
			"max":[
				3.1574325561523438,
				6.716299533843994,
				7.962636470794678
			],
			"min":[
				2.97775936126709,
				-0.0003107786178588867,
				-7.580425262451172
			],
			"type":"VEC3"
		},
		{
			"bufferView":9,
			"componentType":5126,
			"count":16,
			"type":"VEC3"
		},
		{
			"bufferView":10,
			"componentType":5126,
			"count":16,
			"type":"VEC2"
		},
		{
			"bufferView":11,
			"componentType":5123,
			"count":24,
			"type":"SCALAR"
		},
		{
			"bufferView":12,
			"componentType":5126,
			"count":8,
			"max":[
				3.1574325561523438,
				6.716299533843994,
				7.887243747711182
			],
			"min":[
				3.1574318408966064,
				-0.0003107786178588867,
				-7.518337249755859
			],
			"type":"VEC3"
		},
		{
			"bufferView":13,
			"componentType":5126,
			"count":8,
			"type":"VEC3"
		},
		{
			"bufferView":14,
			"componentType":5126,
			"count":8,
			"type":"VEC2"
		},
		{
			"bufferView":15,
			"componentType":5123,
			"count":12,
			"type":"SCALAR"
		},
		{
			"bufferView":16,
			"componentType":5126,
			"count":114,
			"max":[
				9.835577011108398,
				6.716299533843994,
				10.057947158813477
			],
			"min":[
				2.9777591228485107,
				-0.0003107786178588867,
				-10.097789764404297
			],
			"type":"VEC3"
		},
		{
			"bufferView":17,
			"componentType":5126,
			"count":114,
			"type":"VEC3"
		},
		{
			"bufferView":18,
			"componentType":5126,
			"count":114,
			"type":"VEC2"
		},
		{
			"bufferView":19,
			"componentType":5123,
			"count":186,
			"type":"SCALAR"
		},
		{
			"bufferView":20,
			"componentType":5126,
			"count":16,
			"max":[
				3.1574325561523438,
				6.716299533843994,
				7.962636470794678
			],
			"min":[
				2.97775936126709,
				-0.0003107786178588867,
				-7.580425262451172
			],
			"type":"VEC3"
		},
		{
			"bufferView":21,
			"componentType":5126,
			"count":16,
			"type":"VEC3"
		},
		{
			"bufferView":22,
			"componentType":5126,
			"count":16,
			"type":"VEC2"
		},
		{
			"bufferView":23,
			"componentType":5126,
			"count":8,
			"max":[
				3.1574325561523438,
				6.716299533843994,
				7.887243747711182
			],
			"min":[
				3.1574318408966064,
				-0.0003107786178588867,
				-7.518337249755859
			],
			"type":"VEC3"
		},
		{
			"bufferView":24,
			"componentType":5126,
			"count":8,
			"type":"VEC3"
		},
		{
			"bufferView":25,
			"componentType":5126,
			"count":8,
			"type":"VEC2"
		},
		{
			"bufferView":26,
			"componentType":5126,
			"count":114,
			"max":[
				9.835577011108398,
				6.716299533843994,
				10.057947158813477
			],
			"min":[
				2.9777591228485107,
				-0.0003107786178588867,
				-10.097789764404297
			],
			"type":"VEC3"
		},
		{
			"bufferView":27,
			"componentType":5126,
			"count":114,
			"type":"VEC3"
		},
		{
			"bufferView":28,
			"componentType":5126,
			"count":114,
			"type":"VEC2"
		},
		{
			"bufferView":29,
			"componentType":5126,
			"count":30,
			"max":[
				8.00000286102295,
				6.996889114379883,
				9.935484886169434
			],
			"min":[
				-7.999997615814209,
				-0.0031108856201171875,
				9.9354829788208
			],
			"type":"VEC3"
		},
		{
			"bufferView":30,
			"componentType":5126,
			"count":30,
			"type":"VEC3"
		},
		{
			"bufferView":31,
			"componentType":5126,
			"count":30,
			"type":"VEC2"
		},
		{
			"bufferView":32,
			"componentType":5123,
			"count":81,
			"type":"SCALAR"
		},
		{
			"bufferView":33,
			"componentType":5126,
			"count":30,
			"max":[
				8.00000286102295,
				6.996889114379883,
				9.935484886169434
			],
			"min":[
				-7.999997615814209,
				-0.0031108856201171875,
				9.9354829788208
			],
			"type":"VEC3"
		},
		{
			"bufferView":34,
			"componentType":5126,
			"count":30,
			"type":"VEC3"
		},
		{
			"bufferView":35,
			"componentType":5126,
			"count":30,
			"type":"VEC2"
		}
	],
	"bufferViews":[
		{
			"buffer":0,
			"byteLength":48,
			"byteOffset":0,
			"target":34962
		},
		{
			"buffer":0,
			"byteLength":48,
			"byteOffset":48,
			"target":34962
		},
		{
			"buffer":0,
			"byteLength":32,
			"byteOffset":96,
			"target":34962
		},
		{
			"buffer":0,
			"byteLength":12,
			"byteOffset":128,
			"target":34963
		},
		{
			"buffer":0,
			"byteLength":48,
			"byteOffset":140,
			"target":34962
		},
		{
			"buffer":0,
			"byteLength":48,
			"byteOffset":188,
			"target":34962
		},
		{
			"buffer":0,
			"byteLength":32,
			"byteOffset":236,
			"target":34962
		},
		{
			"buffer":0,
			"byteLength":12,
			"byteOffset":268,
			"target":34963
		},
		{
			"buffer":0,
			"byteLength":192,
			"byteOffset":280,
			"target":34962
		},
		{
			"buffer":0,
			"byteLength":192,
			"byteOffset":472,
			"target":34962
		},
		{
			"buffer":0,
			"byteLength":128,
			"byteOffset":664,
			"target":34962
		},
		{
			"buffer":0,
			"byteLength":48,
			"byteOffset":792,
			"target":34963
		},
		{
			"buffer":0,
			"byteLength":96,
			"byteOffset":840,
			"target":34962
		},
		{
			"buffer":0,
			"byteLength":96,
			"byteOffset":936,
			"target":34962
		},
		{
			"buffer":0,
			"byteLength":64,
			"byteOffset":1032,
			"target":34962
		},
		{
			"buffer":0,
			"byteLength":24,
			"byteOffset":1096,
			"target":34963
		},
		{
			"buffer":0,
			"byteLength":1368,
			"byteOffset":1120,
			"target":34962
		},
		{
			"buffer":0,
			"byteLength":1368,
			"byteOffset":2488,
			"target":34962
		},
		{
			"buffer":0,
			"byteLength":912,
			"byteOffset":3856,
			"target":34962
		},
		{
			"buffer":0,
			"byteLength":372,
			"byteOffset":4768,
			"target":34963
		},
		{
			"buffer":0,
			"byteLength":192,
			"byteOffset":5140,
			"target":34962
		},
		{
			"buffer":0,
			"byteLength":192,
			"byteOffset":5332,
			"target":34962
		},
		{
			"buffer":0,
			"byteLength":128,
			"byteOffset":5524,
			"target":34962
		},
		{
			"buffer":0,
			"byteLength":96,
			"byteOffset":5652,
			"target":34962
		},
		{
			"buffer":0,
			"byteLength":96,
			"byteOffset":5748,
			"target":34962
		},
		{
			"buffer":0,
			"byteLength":64,
			"byteOffset":5844,
			"target":34962
		},
		{
			"buffer":0,
			"byteLength":1368,
			"byteOffset":5908,
			"target":34962
		},
		{
			"buffer":0,
			"byteLength":1368,
			"byteOffset":7276,
			"target":34962
		},
		{
			"buffer":0,
			"byteLength":912,
			"byteOffset":8644,
			"target":34962
		},
		{
			"buffer":0,
			"byteLength":360,
			"byteOffset":9556,
			"target":34962
		},
		{
			"buffer":0,
			"byteLength":360,
			"byteOffset":9916,
			"target":34962
		},
		{
			"buffer":0,
			"byteLength":240,
			"byteOffset":10276,
			"target":34962
		},
		{
			"buffer":0,
			"byteLength":162,
			"byteOffset":10516,
			"target":34963
		},
		{
			"buffer":0,
			"byteLength":360,
			"byteOffset":10680,
			"target":34962
		},
		{
			"buffer":0,
			"byteLength":360,
			"byteOffset":11040,
			"target":34962
		},
		{
			"buffer":0,
			"byteLength":240,
			"byteOffset":11400,
			"target":34962
		}
	],
	"samplers":[
		{
			"magFilter":9729,
			"minFilter":9987
		}
	],
	"buffers":[
		{
			"byteLength":11640,
			"uri":"lc_cont2_scps.bin"
		}
	]
}
