{
	"asset":{
		"generator":"Khronos glTF Blender I/O v4.2.57",
		"version":"2.0"
	},
	"scene":0,
	"scenes":[
		{
			"name":"Scene",
			"nodes":[
				0,
				1,
				2,
				3,
				4,
				5
			]
		}
	],
	"nodes":[
		{
			"mesh":0,
			"name":"Ceiling",
			"translation":[
				0,
				-0.39491450786590576,
				0
			]
		},
		{
			"mesh":1,
			"name":"Floor.001"
		},
		{
			"mesh":2,
			"name":"LCZWallNeoCB2.001"
		},
		{
			"mesh":3,
			"name":"LCZWallNeoCB2.002",
			"rotation":[
				0,
				-1,
				0,
				4.371138828673793e-08
			]
		},
		{
			"mesh":4,
			"name":"DoorPath.003",
			"rotation":[
				0,
				-1,
				0,
				4.371138828673793e-08
			]
		},
		{
			"mesh":5,
			"name":"DoorPath.002"
		}
	],
	"materials":[
		{
			"doubleSided":true,
			"name":"Material.004",
			"normalTexture":{
				"index":0
			},
			"pbrMetallicRoughness":{
				"baseColorTexture":{
					"index":1
				},
				"metallicRoughnessTexture":{
					"index":2
				}
			}
		},
		{
			"doubleSided":true,
			"name":"Material.013",
			"normalTexture":{
				"index":3
			},
			"pbrMetallicRoughness":{
				"baseColorTexture":{
					"index":4
				},
				"metallicFactor":0,
				"metallicRoughnessTexture":{
					"index":5
				}
			}
		},
		{
			"doubleSided":true,
			"name":"Glow.004",
			"pbrMetallicRoughness":{
				"baseColorFactor":[
					0,
					0,
					0,
					1
				],
				"metallicFactor":0,
				"roughnessFactor":0.5
			}
		},
		{
			"doubleSided":true,
			"name":"Foreground.001",
			"normalTexture":{
				"index":6
			},
			"pbrMetallicRoughness":{
				"baseColorTexture":{
					"index":7
				},
				"metallicRoughnessTexture":{
					"index":8
				}
			}
		},
		{
			"doubleSided":true,
			"name":"Background.001",
			"normalTexture":{
				"index":9
			},
			"pbrMetallicRoughness":{
				"baseColorFactor":[
					0.800000011920929,
					0.800000011920929,
					0.800000011920929,
					1
				],
				"metallicFactor":0,
				"metallicRoughnessTexture":{
					"index":10
				}
			}
		},
		{
			"doubleSided":true,
			"name":"Foreground.002",
			"normalTexture":{
				"index":11
			},
			"pbrMetallicRoughness":{
				"baseColorTexture":{
					"index":12
				},
				"metallicRoughnessTexture":{
					"index":13
				}
			}
		},
		{
			"doubleSided":true,
			"name":"Background.002",
			"normalTexture":{
				"index":14
			},
			"pbrMetallicRoughness":{
				"baseColorFactor":[
					0.800000011920929,
					0.800000011920929,
					0.800000011920929,
					1
				],
				"metallicFactor":0,
				"metallicRoughnessTexture":{
					"index":15
				}
			}
		},
		{
			"doubleSided":true,
			"name":"Foreground.003",
			"normalTexture":{
				"index":16
			},
			"pbrMetallicRoughness":{
				"baseColorTexture":{
					"index":17
				},
				"metallicRoughnessTexture":{
					"index":18
				}
			}
		},
		{
			"doubleSided":true,
			"name":"Background.003",
			"normalTexture":{
				"index":19
			},
			"pbrMetallicRoughness":{
				"baseColorFactor":[
					0.800000011920929,
					0.800000011920929,
					0.800000011920929,
					1
				],
				"metallicFactor":0,
				"metallicRoughnessTexture":{
					"index":20
				}
			}
		},
		{
			"doubleSided":true,
			"name":"Foreground.006",
			"normalTexture":{
				"index":21
			},
			"pbrMetallicRoughness":{
				"baseColorTexture":{
					"index":22
				},
				"metallicRoughnessTexture":{
					"index":23
				}
			}
		},
		{
			"doubleSided":true,
			"name":"Background.006",
			"normalTexture":{
				"index":24
			},
			"pbrMetallicRoughness":{
				"baseColorFactor":[
					0.800000011920929,
					0.800000011920929,
					0.800000011920929,
					1
				],
				"metallicFactor":0,
				"metallicRoughnessTexture":{
					"index":25
				}
			}
		},
		{
			"doubleSided":true,
			"name":"Foreground.005",
			"normalTexture":{
				"index":26
			},
			"pbrMetallicRoughness":{
				"baseColorTexture":{
					"index":27
				},
				"metallicRoughnessTexture":{
					"index":28
				}
			}
		},
		{
			"doubleSided":true,
			"name":"Background.005",
			"normalTexture":{
				"index":29
			},
			"pbrMetallicRoughness":{
				"baseColorFactor":[
					0.800000011920929,
					0.800000011920929,
					0.800000011920929,
					1
				],
				"metallicFactor":0,
				"metallicRoughnessTexture":{
					"index":30
				}
			}
		},
		{
			"doubleSided":true,
			"name":"Background.004",
			"normalTexture":{
				"index":31
			},
			"pbrMetallicRoughness":{
				"baseColorFactor":[
					0.800000011920929,
					0.800000011920929,
					0.800000011920929,
					1
				],
				"metallicFactor":0,
				"metallicRoughnessTexture":{
					"index":32
				}
			}
		},
		{
			"doubleSided":true,
			"name":"Background.007",
			"normalTexture":{
				"index":33
			},
			"pbrMetallicRoughness":{
				"baseColorFactor":[
					0.800000011920929,
					0.800000011920929,
					0.800000011920929,
					1
				],
				"metallicFactor":0,
				"metallicRoughnessTexture":{
					"index":34
				}
			}
		}
	],
	"meshes":[
		{
			"name":"Plane.005",
			"primitives":[
				{
					"attributes":{
						"POSITION":0,
						"NORMAL":1,
						"TEXCOORD_0":2
					},
					"indices":3,
					"material":0
				}
			]
		},
		{
			"name":"Plane.008",
			"primitives":[
				{
					"attributes":{
						"POSITION":4,
						"NORMAL":5,
						"TEXCOORD_0":6
					},
					"indices":7,
					"material":1
				}
			]
		},
		{
			"name":"Plane.009",
			"primitives":[
				{
					"attributes":{
						"POSITION":8,
						"NORMAL":9,
						"TEXCOORD_0":10
					},
					"indices":11,
					"material":2
				},
				{
					"attributes":{
						"POSITION":12,
						"NORMAL":13,
						"TEXCOORD_0":14
					},
					"indices":15,
					"material":3
				},
				{
					"attributes":{
						"POSITION":16,
						"NORMAL":17,
						"TEXCOORD_0":18
					},
					"indices":19,
					"material":4
				},
				{
					"attributes":{
						"POSITION":20,
						"NORMAL":21,
						"TEXCOORD_0":22
					},
					"indices":15,
					"material":5
				},
				{
					"attributes":{
						"POSITION":23,
						"NORMAL":24,
						"TEXCOORD_0":25
					},
					"indices":19,
					"material":6
				},
				{
					"attributes":{
						"POSITION":26,
						"NORMAL":27,
						"TEXCOORD_0":28
					},
					"indices":15,
					"material":7
				},
				{
					"attributes":{
						"POSITION":29,
						"NORMAL":30,
						"TEXCOORD_0":31
					},
					"indices":32,
					"material":8
				}
			]
		},
		{
			"name":"Plane.006",
			"primitives":[
				{
					"attributes":{
						"POSITION":33,
						"NORMAL":34,
						"TEXCOORD_0":35
					},
					"indices":11,
					"material":2
				},
				{
					"attributes":{
						"POSITION":36,
						"NORMAL":37,
						"TEXCOORD_0":38
					},
					"indices":39,
					"material":9
				},
				{
					"attributes":{
						"POSITION":40,
						"NORMAL":41,
						"TEXCOORD_0":42
					},
					"indices":43,
					"material":10
				},
				{
					"attributes":{
						"POSITION":44,
						"NORMAL":45,
						"TEXCOORD_0":46
					},
					"indices":15,
					"material":11
				},
				{
					"attributes":{
						"POSITION":47,
						"NORMAL":48,
						"TEXCOORD_0":49
					},
					"indices":19,
					"material":12
				}
			]
		},
		{
			"name":"Plane.004",
			"primitives":[
				{
					"attributes":{
						"POSITION":50,
						"NORMAL":51,
						"TEXCOORD_0":52
					},
					"indices":53,
					"material":13
				}
			]
		},
		{
			"name":"Plane.003",
			"primitives":[
				{
					"attributes":{
						"POSITION":54,
						"NORMAL":55,
						"TEXCOORD_0":56
					},
					"indices":53,
					"material":14
				}
			]
		}
	],
	"textures":[
		{
			"sampler":0,
			"source":0
		},
		{
			"sampler":0,
			"source":1
		},
		{
			"sampler":0,
			"source":2
		},
		{
			"sampler":0,
			"source":3
		},
		{
			"sampler":0,
			"source":4
		},
		{
			"sampler":0,
			"source":5
		},
		{
			"sampler":0,
			"source":6
		},
		{
			"sampler":0,
			"source":7
		},
		{
			"sampler":0,
			"source":8
		},
		{
			"sampler":0,
			"source":9
		},
		{
			"sampler":0,
			"source":10
		},
		{
			"sampler":0,
			"source":6
		},
		{
			"sampler":0,
			"source":7
		},
		{
			"sampler":0,
			"source":8
		},
		{
			"sampler":0,
			"source":9
		},
		{
			"sampler":0,
			"source":10
		},
		{
			"sampler":0,
			"source":6
		},
		{
			"sampler":0,
			"source":7
		},
		{
			"sampler":0,
			"source":8
		},
		{
			"sampler":0,
			"source":9
		},
		{
			"sampler":0,
			"source":10
		},
		{
			"sampler":0,
			"source":6
		},
		{
			"sampler":0,
			"source":7
		},
		{
			"sampler":0,
			"source":8
		},
		{
			"sampler":0,
			"source":9
		},
		{
			"sampler":0,
			"source":10
		},
		{
			"sampler":0,
			"source":6
		},
		{
			"sampler":0,
			"source":7
		},
		{
			"sampler":0,
			"source":8
		},
		{
			"sampler":0,
			"source":9
		},
		{
			"sampler":0,
			"source":10
		},
		{
			"sampler":0,
			"source":9
		},
		{
			"sampler":0,
			"source":11
		},
		{
			"sampler":0,
			"source":9
		},
		{
			"sampler":0,
			"source":11
		}
	],
	"images":[
		{
			"mimeType":"image/png",
			"name":"OfficeCeiling001_2K_NormalGL",
			"uri":"OfficeCeiling001_2K_NormalGL.png"
		},
		{
			"mimeType":"image/png",
			"name":"OfficeCeiling001_2K_Color",
			"uri":"OfficeCeiling001_2K_Color.png"
		},
		{
			"mimeType":"image/png",
			"name":"OfficeCeiling001_2K_Metalness-OfficeCeiling001_2K_Roughness",
			"uri":"OfficeCeiling001_2K_Metalness-OfficeCeiling001_2K_Roughness.png"
		},
		{
			"mimeType":"image/png",
			"name":"Tiles107_2K_NormalGL",
			"uri":"Tiles107_2K_NormalGL.png"
		},
		{
			"mimeType":"image/png",
			"name":"Tiles107_2K_Color",
			"uri":"Tiles107_2K_Color.png"
		},
		{
			"mimeType":"image/png",
			"name":"Tiles107_2K_Roughness",
			"uri":"Tiles107_2K_Roughness.png"
		},
		{
			"mimeType":"image/png",
			"name":"SheetMetal001_2K-PNG_NormalGL",
			"uri":"SheetMetal001_2K-PNG_NormalGL.png"
		},
		{
			"mimeType":"image/png",
			"name":"SheetMetal001_2K-PNG_Color",
			"uri":"SheetMetal001_2K-PNG_Color.png"
		},
		{
			"mimeType":"image/png",
			"name":"SheetMetal001_2K-PNG_Metalness-SheetMetal001_2K-PNG_Roughness",
			"uri":"SheetMetal001_2K-PNG_Metalness-SheetMetal001_2K-PNG_Roughness.png"
		},
		{
			"mimeType":"image/png",
			"name":"beige_wall_001_nor_gl_2k",
			"uri":"beige_wall_001_nor_gl_2k.png"
		},
		{
			"mimeType":"image/png",
			"name":"beige_wall_001_rough_2k",
			"uri":"beige_wall_001_rough_2k.png"
		},
		{
			"mimeType":"image/png",
			"name":"beige_wall_001_rough_2k",
			"uri":"beige_wall_001_rough_2k-1.png"
		}
	],
	"accessors":[
		{
			"bufferView":0,
			"componentType":5126,
			"count":4,
			"max":[
				10,
				6.99613094329834,
				10
			],
			"min":[
				-10,
				6.99613094329834,
				-10
			],
			"type":"VEC3"
		},
		{
			"bufferView":1,
			"componentType":5126,
			"count":4,
			"type":"VEC3"
		},
		{
			"bufferView":2,
			"componentType":5126,
			"count":4,
			"type":"VEC2"
		},
		{
			"bufferView":3,
			"componentType":5123,
			"count":6,
			"type":"SCALAR"
		},
		{
			"bufferView":4,
			"componentType":5126,
			"count":4,
			"max":[
				10.238296508789062,
				3.755558282136917e-07,
				10.238296508789062
			],
			"min":[
				-10.238295555114746,
				3.755558282136917e-07,
				-10.238296508789062
			],
			"type":"VEC3"
		},
		{
			"bufferView":5,
			"componentType":5126,
			"count":4,
			"type":"VEC3"
		},
		{
			"bufferView":6,
			"componentType":5126,
			"count":4,
			"type":"VEC2"
		},
		{
			"bufferView":7,
			"componentType":5123,
			"count":6,
			"type":"SCALAR"
		},
		{
			"bufferView":8,
			"componentType":5126,
			"count":24,
			"max":[
				3.265799045562744,
				6.610196113586426,
				7.629590034484863
			],
			"min":[
				3.0861258506774902,
				-0.10641400516033173,
				-7.913471698760986
			],
			"type":"VEC3"
		},
		{
			"bufferView":9,
			"componentType":5126,
			"count":24,
			"type":"VEC3"
		},
		{
			"bufferView":10,
			"componentType":5126,
			"count":24,
			"type":"VEC2"
		},
		{
			"bufferView":11,
			"componentType":5123,
			"count":36,
			"type":"SCALAR"
		},
		{
			"bufferView":12,
			"componentType":5126,
			"count":4,
			"max":[
				3.265799045562744,
				6.610196113586426,
				-6.571379661560059
			],
			"min":[
				3.265798807144165,
				-0.10641399770975113,
				-7.851383686065674
			],
			"type":"VEC3"
		},
		{
			"bufferView":13,
			"componentType":5126,
			"count":4,
			"type":"VEC3"
		},
		{
			"bufferView":14,
			"componentType":5126,
			"count":4,
			"type":"VEC2"
		},
		{
			"bufferView":15,
			"componentType":5123,
			"count":6,
			"type":"SCALAR"
		},
		{
			"bufferView":16,
			"componentType":5126,
			"count":10,
			"max":[
				3.0861263275146484,
				6.610196113586426,
				-2.78707218170166
			],
			"min":[
				3.0861260890960693,
				-0.10641400516033173,
				-10.046891212463379
			],
			"type":"VEC3"
		},
		{
			"bufferView":17,
			"componentType":5126,
			"count":10,
			"type":"VEC3"
		},
		{
			"bufferView":18,
			"componentType":5126,
			"count":10,
			"type":"VEC2"
		},
		{
			"bufferView":19,
			"componentType":5123,
			"count":18,
			"type":"SCALAR"
		},
		{
			"bufferView":20,
			"componentType":5126,
			"count":4,
			"max":[
				3.265798807144165,
				6.610196113586426,
				0.6884393692016602
			],
			"min":[
				3.265798568725586,
				-0.10641399770975113,
				-0.5915646553039551
			],
			"type":"VEC3"
		},
		{
			"bufferView":21,
			"componentType":5126,
			"count":4,
			"type":"VEC3"
		},
		{
			"bufferView":22,
			"componentType":5126,
			"count":4,
			"type":"VEC2"
		},
		{
			"bufferView":23,
			"componentType":5126,
			"count":10,
			"max":[
				3.0861260890960693,
				6.610196113586426,
				4.078685760498047
			],
			"min":[
				3.0861258506774902,
				-0.10641400516033173,
				-2.78707218170166
			],
			"type":"VEC3"
		},
		{
			"bufferView":24,
			"componentType":5126,
			"count":10,
			"type":"VEC3"
		},
		{
			"bufferView":25,
			"componentType":5126,
			"count":10,
			"type":"VEC2"
		},
		{
			"bufferView":26,
			"componentType":5126,
			"count":4,
			"max":[
				3.265798568725586,
				6.610196113586426,
				7.554197311401367
			],
			"min":[
				3.265798330307007,
				-0.10641399770975113,
				6.274192810058594
			],
			"type":"VEC3"
		},
		{
			"bufferView":27,
			"componentType":5126,
			"count":4,
			"type":"VEC3"
		},
		{
			"bufferView":28,
			"componentType":5126,
			"count":4,
			"type":"VEC2"
		},
		{
			"bufferView":29,
			"componentType":5126,
			"count":8,
			"max":[
				3.0861258506774902,
				6.610196113586426,
				10.136270523071289
			],
			"min":[
				3.086125612258911,
				-0.10641400516033173,
				4.078685760498047
			],
			"type":"VEC3"
		},
		{
			"bufferView":30,
			"componentType":5126,
			"count":8,
			"type":"VEC3"
		},
		{
			"bufferView":31,
			"componentType":5126,
			"count":8,
			"type":"VEC2"
		},
		{
			"bufferView":32,
			"componentType":5123,
			"count":12,
			"type":"SCALAR"
		},
		{
			"bufferView":33,
			"componentType":5126,
			"count":24,
			"max":[
				3.265799045562744,
				6.610196113586426,
				7.629590034484863
			],
			"min":[
				3.0861258506774902,
				-0.10641400516033173,
				-7.913471698760986
			],
			"type":"VEC3"
		},
		{
			"bufferView":34,
			"componentType":5126,
			"count":24,
			"type":"VEC3"
		},
		{
			"bufferView":35,
			"componentType":5126,
			"count":24,
			"type":"VEC2"
		},
		{
			"bufferView":36,
			"componentType":5126,
			"count":8,
			"max":[
				3.265799045562744,
				6.610196113586426,
				7.554197311401367
			],
			"min":[
				3.265798330307007,
				-0.10641399770975113,
				-7.851383686065674
			],
			"type":"VEC3"
		},
		{
			"bufferView":37,
			"componentType":5126,
			"count":8,
			"type":"VEC3"
		},
		{
			"bufferView":38,
			"componentType":5126,
			"count":8,
			"type":"VEC2"
		},
		{
			"bufferView":39,
			"componentType":5123,
			"count":12,
			"type":"SCALAR"
		},
		{
			"bufferView":40,
			"componentType":5126,
			"count":18,
			"max":[
				3.0861263275146484,
				6.610196113586426,
				10.136270523071289
			],
			"min":[
				3.086125612258911,
				-0.10641400516033173,
				-10.046891212463379
			],
			"type":"VEC3"
		},
		{
			"bufferView":41,
			"componentType":5126,
			"count":18,
			"type":"VEC3"
		},
		{
			"bufferView":42,
			"componentType":5126,
			"count":18,
			"type":"VEC2"
		},
		{
			"bufferView":43,
			"componentType":5123,
			"count":30,
			"type":"SCALAR"
		},
		{
			"bufferView":44,
			"componentType":5126,
			"count":4,
			"max":[
				3.265798807144165,
				6.610196113586426,
				0.6884393692016602
			],
			"min":[
				3.265798568725586,
				-0.10641399770975113,
				-0.5915646553039551
			],
			"type":"VEC3"
		},
		{
			"bufferView":45,
			"componentType":5126,
			"count":4,
			"type":"VEC3"
		},
		{
			"bufferView":46,
			"componentType":5126,
			"count":4,
			"type":"VEC2"
		},
		{
			"bufferView":47,
			"componentType":5126,
			"count":10,
			"max":[
				3.0861260890960693,
				6.610196113586426,
				4.078685760498047
			],
			"min":[
				3.0861258506774902,
				-0.10641400516033173,
				-2.78707218170166
			],
			"type":"VEC3"
		},
		{
			"bufferView":48,
			"componentType":5126,
			"count":10,
			"type":"VEC3"
		},
		{
			"bufferView":49,
			"componentType":5126,
			"count":10,
			"type":"VEC2"
		},
		{
			"bufferView":50,
			"componentType":5126,
			"count":30,
			"max":[
				8.00000286102295,
				6.996889114379883,
				9.935484886169434
			],
			"min":[
				-7.999997615814209,
				-0.0031108856201171875,
				9.9354829788208
			],
			"type":"VEC3"
		},
		{
			"bufferView":51,
			"componentType":5126,
			"count":30,
			"type":"VEC3"
		},
		{
			"bufferView":52,
			"componentType":5126,
			"count":30,
			"type":"VEC2"
		},
		{
			"bufferView":53,
			"componentType":5123,
			"count":81,
			"type":"SCALAR"
		},
		{
			"bufferView":54,
			"componentType":5126,
			"count":30,
			"max":[
				8.00000286102295,
				6.996889114379883,
				9.935484886169434
			],
			"min":[
				-7.999997615814209,
				-0.0031108856201171875,
				9.9354829788208
			],
			"type":"VEC3"
		},
		{
			"bufferView":55,
			"componentType":5126,
			"count":30,
			"type":"VEC3"
		},
		{
			"bufferView":56,
			"componentType":5126,
			"count":30,
			"type":"VEC2"
		}
	],
	"bufferViews":[
		{
			"buffer":0,
			"byteLength":48,
			"byteOffset":0,
			"target":34962
		},
		{
			"buffer":0,
			"byteLength":48,
			"byteOffset":48,
			"target":34962
		},
		{
			"buffer":0,
			"byteLength":32,
			"byteOffset":96,
			"target":34962
		},
		{
			"buffer":0,
			"byteLength":12,
			"byteOffset":128,
			"target":34963
		},
		{
			"buffer":0,
			"byteLength":48,
			"byteOffset":140,
			"target":34962
		},
		{
			"buffer":0,
			"byteLength":48,
			"byteOffset":188,
			"target":34962
		},
		{
			"buffer":0,
			"byteLength":32,
			"byteOffset":236,
			"target":34962
		},
		{
			"buffer":0,
			"byteLength":12,
			"byteOffset":268,
			"target":34963
		},
		{
			"buffer":0,
			"byteLength":288,
			"byteOffset":280,
			"target":34962
		},
		{
			"buffer":0,
			"byteLength":288,
			"byteOffset":568,
			"target":34962
		},
		{
			"buffer":0,
			"byteLength":192,
			"byteOffset":856,
			"target":34962
		},
		{
			"buffer":0,
			"byteLength":72,
			"byteOffset":1048,
			"target":34963
		},
		{
			"buffer":0,
			"byteLength":48,
			"byteOffset":1120,
			"target":34962
		},
		{
			"buffer":0,
			"byteLength":48,
			"byteOffset":1168,
			"target":34962
		},
		{
			"buffer":0,
			"byteLength":32,
			"byteOffset":1216,
			"target":34962
		},
		{
			"buffer":0,
			"byteLength":12,
			"byteOffset":1248,
			"target":34963
		},
		{
			"buffer":0,
			"byteLength":120,
			"byteOffset":1260,
			"target":34962
		},
		{
			"buffer":0,
			"byteLength":120,
			"byteOffset":1380,
			"target":34962
		},
		{
			"buffer":0,
			"byteLength":80,
			"byteOffset":1500,
			"target":34962
		},
		{
			"buffer":0,
			"byteLength":36,
			"byteOffset":1580,
			"target":34963
		},
		{
			"buffer":0,
			"byteLength":48,
			"byteOffset":1616,
			"target":34962
		},
		{
			"buffer":0,
			"byteLength":48,
			"byteOffset":1664,
			"target":34962
		},
		{
			"buffer":0,
			"byteLength":32,
			"byteOffset":1712,
			"target":34962
		},
		{
			"buffer":0,
			"byteLength":120,
			"byteOffset":1744,
			"target":34962
		},
		{
			"buffer":0,
			"byteLength":120,
			"byteOffset":1864,
			"target":34962
		},
		{
			"buffer":0,
			"byteLength":80,
			"byteOffset":1984,
			"target":34962
		},
		{
			"buffer":0,
			"byteLength":48,
			"byteOffset":2064,
			"target":34962
		},
		{
			"buffer":0,
			"byteLength":48,
			"byteOffset":2112,
			"target":34962
		},
		{
			"buffer":0,
			"byteLength":32,
			"byteOffset":2160,
			"target":34962
		},
		{
			"buffer":0,
			"byteLength":96,
			"byteOffset":2192,
			"target":34962
		},
		{
			"buffer":0,
			"byteLength":96,
			"byteOffset":2288,
			"target":34962
		},
		{
			"buffer":0,
			"byteLength":64,
			"byteOffset":2384,
			"target":34962
		},
		{
			"buffer":0,
			"byteLength":24,
			"byteOffset":2448,
			"target":34963
		},
		{
			"buffer":0,
			"byteLength":288,
			"byteOffset":2472,
			"target":34962
		},
		{
			"buffer":0,
			"byteLength":288,
			"byteOffset":2760,
			"target":34962
		},
		{
			"buffer":0,
			"byteLength":192,
			"byteOffset":3048,
			"target":34962
		},
		{
			"buffer":0,
			"byteLength":96,
			"byteOffset":3240,
			"target":34962
		},
		{
			"buffer":0,
			"byteLength":96,
			"byteOffset":3336,
			"target":34962
		},
		{
			"buffer":0,
			"byteLength":64,
			"byteOffset":3432,
			"target":34962
		},
		{
			"buffer":0,
			"byteLength":24,
			"byteOffset":3496,
			"target":34963
		},
		{
			"buffer":0,
			"byteLength":216,
			"byteOffset":3520,
			"target":34962
		},
		{
			"buffer":0,
			"byteLength":216,
			"byteOffset":3736,
			"target":34962
		},
		{
			"buffer":0,
			"byteLength":144,
			"byteOffset":3952,
			"target":34962
		},
		{
			"buffer":0,
			"byteLength":60,
			"byteOffset":4096,
			"target":34963
		},
		{
			"buffer":0,
			"byteLength":48,
			"byteOffset":4156,
			"target":34962
		},
		{
			"buffer":0,
			"byteLength":48,
			"byteOffset":4204,
			"target":34962
		},
		{
			"buffer":0,
			"byteLength":32,
			"byteOffset":4252,
			"target":34962
		},
		{
			"buffer":0,
			"byteLength":120,
			"byteOffset":4284,
			"target":34962
		},
		{
			"buffer":0,
			"byteLength":120,
			"byteOffset":4404,
			"target":34962
		},
		{
			"buffer":0,
			"byteLength":80,
			"byteOffset":4524,
			"target":34962
		},
		{
			"buffer":0,
			"byteLength":360,
			"byteOffset":4604,
			"target":34962
		},
		{
			"buffer":0,
			"byteLength":360,
			"byteOffset":4964,
			"target":34962
		},
		{
			"buffer":0,
			"byteLength":240,
			"byteOffset":5324,
			"target":34962
		},
		{
			"buffer":0,
			"byteLength":162,
			"byteOffset":5564,
			"target":34963
		},
		{
			"buffer":0,
			"byteLength":360,
			"byteOffset":5728,
			"target":34962
		},
		{
			"buffer":0,
			"byteLength":360,
			"byteOffset":6088,
			"target":34962
		},
		{
			"buffer":0,
			"byteLength":240,
			"byteOffset":6448,
			"target":34962
		}
	],
	"samplers":[
		{
			"magFilter":9729,
			"minFilter":9987
		}
	],
	"buffers":[
		{
			"byteLength":6688,
			"uri":"lc_room2_hallway.bin"
		}
	]
}
