<?xml version="1.0" encoding="UTF-8" standalone="no"?>
<!-- Created with Inkscape (http://www.inkscape.org/) -->

<svg
   width="16.0px"
   height="16.0px"
   viewBox="0 0 16.0 16.0"
   version="1.1"
   id="SVGRoot"
   sodipodi:docname="MapGenInfinite3D.svg"
   inkscape:version="1.2.1 (9c6d41e410, 2022-07-14)"
   xml:space="preserve"
   xmlns:inkscape="http://www.inkscape.org/namespaces/inkscape"
   xmlns:sodipodi="http://sodipodi.sourceforge.net/DTD/sodipodi-0.dtd"
   xmlns="http://www.w3.org/2000/svg"
   xmlns:svg="http://www.w3.org/2000/svg"><sodipodi:namedview
     id="namedview187"
     pagecolor="#505050"
     bordercolor="#ffffff"
     borderopacity="1"
     inkscape:showpageshadow="0"
     inkscape:pageopacity="0"
     inkscape:pagecheckerboard="1"
     inkscape:deskcolor="#505050"
     inkscape:document-units="px"
     showgrid="true"
     inkscape:zoom="33.96"
     inkscape:cx="7.6266196"
     inkscape:cy="8.8928151"
     inkscape:window-width="1920"
     inkscape:window-height="1009"
     inkscape:window-x="-8"
     inkscape:window-y="-8"
     inkscape:window-maximized="1"
     inkscape:current-layer="layer1"
     showguides="true"><inkscape:grid
       type="xygrid"
       id="grid310" /><sodipodi:guide
       position="18.698469,5.1048292"
       orientation="0,-1"
       id="guide3965"
       inkscape:locked="false" /></sodipodi:namedview><defs
     id="defs182"><inkscape:path-effect
       effect="bspline"
       id="path-effect980"
       is_visible="true"
       lpeversion="1"
       weight="33.333333"
       steps="2"
       helper_size="0"
       apply_no_weight="true"
       apply_with_weight="true"
       only_selected="false" /></defs><g
     inkscape:label="Слой 1"
     inkscape:groupmode="layer"
     id="layer1"><rect
       style="fill:#ffffff;fill-opacity:0;stroke:#fc7f7f;stroke-width:1.00157;stroke-dasharray:none;stroke-opacity:1"
       id="rect5745"
       width="8.0977621"
       height="4.0341578"
       x="6.4782095"
       y="6.4487634" /><path
       style="fill:#ffffff;fill-opacity:0;stroke:#fc7f7f;stroke-width:1.00157;stroke-dasharray:none;stroke-opacity:1"
       d="M 10.482921,2.885748 V 6.5076561"
       id="path5803" /><path
       style="fill:#ffffff;fill-opacity:0;stroke:#fc7f7f;stroke-width:1.00157;stroke-dasharray:none;stroke-opacity:1"
       d="M 6.5371025,10.482921 H 2.5029446 v -7.95053"
       id="path5807" /><path
       style="fill:#ffffff;fill-opacity:0;stroke:#fc7f7f;stroke-width:1.00157;stroke-dasharray:none;stroke-opacity:1"
       d="m 6.5076561,10.630153 v 3.651355"
       id="path5811" /><rect
       style="fill:#fc7f7f;fill-opacity:1;stroke:none;stroke-width:1.37562;stroke-dasharray:none;stroke-opacity:1"
       id="rect5869"
       width="3.03298"
       height="3.0329802"
       x="0.97173142"
       y="0.94228506" /><rect
       style="fill:#fc7f7f;fill-opacity:1;stroke:none;stroke-width:1.37561;stroke-dasharray:none;stroke-opacity:1"
       id="rect5869-6"
       width="3.03298"
       height="3.03298"
       x="5.0058889"
       y="11.955242" /><rect
       style="fill:#fc7f7f;fill-opacity:1;stroke:none;stroke-width:1.37754;stroke-dasharray:none;stroke-opacity:1"
       id="rect5869-1"
       width="3.03298"
       height="3.0415041"
       x="9.0106001"
       y="0.99265313" /><path
       style="fill:none;stroke:#fc7f7f;stroke-width:1.00157;stroke-opacity:1"
       d="m 12.887988,14.340293 c -0.127325,-0.117893 -0.392342,-0.363279 -0.563987,-0.520481 -0.171645,-0.157201 -0.25017,-0.225911 -0.303466,-0.267819 -0.0533,-0.04191 -0.08273,-0.05172 -0.191573,-0.142109 -0.108845,-0.09039 -0.295339,-0.267068 -0.441676,-0.382067 -0.146336,-0.115 -0.254304,-0.164076 -0.411951,-0.200653 -0.157647,-0.03658 -0.363775,-0.05621 -0.49871,-0.05772 -0.134934,-0.0015 -0.19383,0.01811 -0.226276,0.02893 -0.03245,0.01082 -0.04205,0.01082 -0.07258,0.07778 -0.03053,0.06696 -0.06979,0.194563 -0.09903,0.271074 -0.02924,0.07651 -0.04888,0.105967 -0.0015,0.258081 0.0474,0.152115 0.155368,0.417133 0.261972,0.571145 0.106604,0.154013 0.204757,0.203089 0.273347,0.231007 0.06859,0.02792 0.107849,0.03773 0.136415,0.05599 0.02857,0.01825 0.0482,0.03788 0.106543,0.03734 0.05835,-5.39e-4 0.156499,-0.01035 0.231722,-0.03522 0.07522,-0.02486 0.134116,-0.06412 0.253403,-0.118374 0.119288,-0.05425 0.295965,-0.122957 0.426973,-0.186494 0.131008,-0.06354 0.219348,-0.122431 0.266267,-0.158912 0.04692,-0.03648 0.05675,-0.05613 0.07747,-0.06795 0.02072,-0.01182 0.04035,-0.01182 0.08478,-0.04648 0.04443,-0.03466 0.122956,-0.103373 0.197165,-0.162633 0.07421,-0.05926 0.142913,-0.108333 0.194046,-0.138106 0.05113,-0.02977 0.08057,-0.03958 0.187398,-0.09355 0.106832,-0.05396 0.293324,-0.152118 0.457181,-0.215747 0.163857,-0.06363 0.301272,-0.09308 0.493013,-0.127281 0.191741,-0.0342 0.437128,-0.07347 0.594726,-0.04787 0.157597,0.02559 0.226307,0.10412 0.256015,0.152887 0.02971,0.04877 0.02971,0.0684 0.04252,0.09884 0.01281,0.03045 0.03244,0.06971 0.04434,0.235731 0.0119,0.166025 0.02171,0.46049 -0.01281,0.641821 -0.03452,0.181331 -0.113051,0.259858 -0.218607,0.327532 -0.105556,0.06767 -0.242974,0.126566 -0.353266,0.157047 -0.110292,0.03048 -0.19863,0.03048 -0.247799,0.03048 -0.04917,0 -0.05877,-0.0096 -0.152034,-0.01952 -0.09326,-0.0099 -0.269943,-0.0099 -0.39169,-0.01804 -0.121746,-0.0081 -0.190461,-0.02775 -0.230759,-0.03926 -0.0403,-0.01151 -0.04029,-0.0115 -0.167614,-0.129395 z"
       id="path978"
       inkscape:path-effect="#path-effect980"
       inkscape:original-d="m 13.015312,14.458186 c -0.255018,-0.235387 -0.520035,-0.480773 -0.795053,-0.73616 -0.06852,-0.05871 -0.147047,-0.127417 -0.235571,-0.206125 -0.01945,1.85e-4 -0.04889,-0.0096 -0.08834,-0.02945 -0.176494,-0.166679 -0.362988,-0.343357 -0.559482,-0.530036 -0.09797,-0.03908 -0.20594,-0.08815 -0.323911,-0.147232 -0.196124,-0.0096 -0.402249,-0.02926 -0.618374,-0.05889 -0.04889,0.02963 -0.107786,0.04926 -0.176679,0.05889 1.85e-4,0.01 -0.0096,0.01 -0.02945,0 -0.02926,0.137601 -0.06852,0.265202 -0.117786,0.382804 -0.0096,0.03945 -0.02926,0.06889 -0.05889,0.08834 0.11797,0.275017 0.22594,0.540035 0.32391,0.795053 0.108155,0.05908 0.206309,0.108154 0.294464,0.147232 0.04926,0.01982 0.08852,0.02963 0.117786,0.02945 0.02963,0.02963 0.04926,0.04926 0.05889,0.05889 0.108154,1.85e-4 0.206309,-0.0096 0.294464,-0.02945 0.06889,-0.02926 0.127785,-0.06852 0.176678,-0.117786 0.186679,-0.05871 0.363357,-0.127417 0.530035,-0.206125 0.09834,-0.04889 0.186679,-0.107785 0.265018,-0.176678 0.01982,-0.0096 0.02963,-0.02926 0.02945,-0.05889 0.02963,0.01 0.04926,0.01 0.05889,0 0.08852,-0.05871 0.167048,-0.127417 0.235572,-0.206125 0.07871,-0.03908 0.147416,-0.08815 0.206124,-0.147232 0.03945,1.85e-4 0.06889,-0.0096 0.08834,-0.02945 0.196494,-0.08816 0.382987,-0.18631 0.559481,-0.294464 0.147417,-0.01945 0.284834,-0.04889 0.41225,-0.08834 0.255387,-0.02926 0.500774,-0.06852 0.73616,-0.117785 0.07871,0.08852 0.147417,0.167047 0.206125,0.235571 0.01,0.02963 0.01,0.04926 0,0.05889 0.02963,0.04926 0.04926,0.08852 0.05889,0.117785 0.01981,0.304464 0.02963,0.598929 0.02945,0.883393 -0.06852,0.08852 -0.147047,0.167047 -0.235571,0.235571 -0.127416,0.06889 -0.264833,0.127786 -0.41225,0.176678 -0.07834,0.01 -0.166678,0.01 -0.265017,0 1.84e-4,1.85e-4 -0.0096,-0.0096 -0.02945,-0.02945 -0.166678,0.01 -0.343357,0.01 -0.530035,0 -0.05871,-0.0096 -0.127417,-0.02926 -0.206125,-0.05889 z" /></g></svg>
